<?xml version="1.0" encoding="UTF-8"?>
<svg width="38px" height="39px" viewBox="0 0 38 39" version="1.1" xmlns="http://www.w3.org/2000/svg" xmlns:xlink="http://www.w3.org/1999/xlink">
    <!-- Generator: Sketch 41 (35326) - http://www.bohemiancoding.com/sketch -->
    <title>Page 1</title>
    <desc>Created with Sketch.</desc>
    <defs></defs>
    <g id="Page-1" stroke="none" stroke-width="1" fill="none" fill-rule="evenodd">
        <g>
            <path d="M18.96799,31.322999 C18.67099,33.560999 16.63499,37.7979991 11.04999,37.7979991 L0.6319916,37.7979991 C0.6319916,37.7979991 0.6659916,34.034999 3.905992,34.034999 L11.04999,34.034999 C13.98999,34.034999 14.54799,31.916999 14.64999,31.318999" id="Fill-1" fill="#020000"></path>
            <path d="M11.05,38.4229988 L0,38.4229988 L0.004,37.7929988 C0.018,36.273999 0.851,33.407999 3.906,33.407999 L11.05,33.407999 C13.406,33.407999 13.92,31.872999 14.031,31.214999 L15.268,31.424999 C15.002,32.989999 13.755,34.660999 11.05,34.660999 L3.906,34.660999 C2.04,34.660999 1.49,36.250999 1.326,37.169999 L11.05,37.169999 C16.2,37.169999 18.075,33.289999 18.346,31.239999 L19.589,31.404999 C19.268,33.832999 17.069,38.4229988 11.05,38.4229988" id="Fill-2" fill="#FFFFFE"></path>
            <path d="M18.94799,31.322999 C19.24499,33.560999 21.28299,37.7979991 26.86599,37.7979991 L37.28599,37.7979991 C37.28599,37.7979991 37.25099,34.034999 34.00799,34.034999 L26.86599,34.034999 C23.92399,34.034999 23.36799,31.916999 23.26599,31.318999" id="Fill-3" fill="#020000"></path>
            <path d="M37.91799,38.423 L26.86599,38.423 C20.84599,38.423 18.64899,33.833 18.32799,31.405 L19.56999,31.24 C19.84099,33.29 21.71499,37.17 26.86599,37.17 L36.58999,37.17 C36.42799,36.251 35.87799,34.661 34.00799,34.661 L26.86599,34.661 C24.15999,34.661 22.91399,32.99 22.64899,31.425 L23.88499,31.215 C23.99499,31.873 24.51099,33.408 26.86599,33.408 L34.00799,33.408 C37.06499,33.408 37.89699,36.274 37.91099,37.793 L37.91799,38.423" id="Fill-4" fill="#FFFFFE"></path>
            <path d="M25.82299,25.326 C27.95199,23.313 29.74999,20.812 29.74999,18.098 C29.74999,11.451 18.95899,6.062 18.95899,6.062 C18.95899,6.062 8.168991,11.451 8.168991,18.098 C8.168991,20.812 9.964991,23.313 12.09299,25.326" id="Fill-5" fill="#020000"></path>
            <path d="M26.255,25.781 L25.392,24.871 C27.869,22.53 29.122,20.252 29.122,18.098 C29.122,12.49 20.624,7.663 18.959,6.769 C17.293,7.664 8.794999,12.495 8.794999,18.098 C8.794999,20.252 10.048,22.53 12.524,24.871 L11.662,25.781 C8.926999,23.195 7.540999,20.611 7.540999,18.098 C7.540999,11.144 18.224,5.728 18.678,5.5 L18.959,5.362 L19.238,5.5 C19.693,5.728 30.376,11.144 30.376,18.098 C30.376,20.611 28.989,23.195 26.255,25.781" id="Fill-6" fill="#FFFFFE"></path>
            <polyline id="Fill-7" fill="#020000" points="22.72099 15.468 19.93299 15.468 19.93299 12.68 17.98099 12.68 17.98099 15.468 15.19499 15.468 15.19499 17.419 17.98099 17.419 17.98099 20.205 19.93299 20.205 19.93299 17.419 22.72099 17.419 22.72099 15.468"></polyline>
            <path d="M20.55999,20.833 L17.35499,20.833 L17.35499,18.049 L14.56799,18.049 L14.56799,14.842 L17.35499,14.842 L17.35499,12.054 L20.55999,12.054 L20.55999,14.842 L23.34799,14.842 L23.34799,18.049 L20.55999,18.049 L20.55999,20.833 Z M18.60899,19.579 L19.30699,19.579 L19.30699,16.794 L22.09399,16.794 L22.09399,16.096 L19.30699,16.096 L19.30699,13.308 L18.60899,13.308 L18.60899,16.096 L15.82199,16.096 L15.82199,16.794 L18.60899,16.794 L18.60899,19.579 L18.60899,19.579 Z" id="Fill-8" fill="#FFFFFE"></path>
            <path d="M21.467,3.136 C21.467,1.751 20.342,0.629 18.959,0.629 C17.573,0.629 16.45,1.751 16.45,3.136 C16.45,4.52 17.573,5.644 18.959,5.644 C20.342,5.644 21.467,4.52 21.467,3.136" id="Fill-9" fill="#020000"></path>
            <path d="M18.95899,6.273 C17.22999,6.273 15.82199,4.867 15.82199,3.136 C15.82199,1.408 17.22999,0 18.95899,0 C20.68699,0 22.09399,1.408 22.09399,3.136 C22.09399,4.867 20.68699,6.273 18.95899,6.273 Z M18.95899,1.255 C17.92099,1.255 17.07699,2.097 17.07699,3.136 C17.07699,4.173 17.92099,5.018 18.95899,5.018 C19.99499,5.018 20.83999,4.173 20.83999,3.136 C20.83999,2.097 19.99499,1.255 18.95899,1.255 L18.95899,1.255 Z" id="Fill-10" fill="#FFFFFE"></path>
            <polyline id="Fill-11" fill="#020000" points="27.598 31.424999 10.319 31.424999 11.992 25.153 25.925 25.153 27.598 31.424999"></polyline>
            <path d="M28.414,32.051999 L9.502999,32.051999 L11.51,24.526 L26.406,24.526 L28.414,32.051999 Z M11.135,30.794999 L26.781,30.794999 L25.443,25.78 L12.473,25.78 L11.135,30.794999 L11.135,30.794999 Z" id="Fill-12" fill="#FFFFFE"></path>
        </g>
    </g>
</svg>