<?xml version="1.0" encoding="UTF-8"?>
<svg width="38px" height="39px" viewBox="0 0 38 39" version="1.1" xmlns="http://www.w3.org/2000/svg" xmlns:xlink="http://www.w3.org/1999/xlink">
    <!-- Generator: Sketch 41 (35326) - http://www.bohemiancoding.com/sketch -->
    <title>Page 1</title>
    <desc>Created with Sketch.</desc>
    <defs></defs>
    <g id="Page-1" stroke="none" stroke-width="1" fill="none" fill-rule="evenodd">
        <g>
            <path d="M18.96799,31.321008 C18.67099,33.562008 16.63499,37.796008 11.04999,37.796008 L0.6319916,37.796008 C0.6319916,37.796008 0.6659916,34.036008 3.905992,34.036008 L11.04999,34.036008 C13.98999,34.036008 14.54799,31.918008 14.64999,31.317008" id="Fill-1" fill="#FFFFFE"></path>
            <path d="M11.05,38.42399 L0,38.42399 L0.004,37.79199 C0.018,36.27399 0.851,33.40899 3.906,33.40899 L11.05,33.40899 C13.406,33.40899 13.92,31.87399 14.031,31.21399 L15.268,31.42399 C15.002,32.98699 13.755,34.66099 11.05,34.66099 L3.906,34.66099 C2.04,34.66099 1.49,36.24899 1.326,37.16899 L11.05,37.16899 C16.2,37.16899 18.075,33.29199 18.346,31.23899 L19.589,31.40499 C19.268,33.82999 17.07,38.42399 11.05,38.42399" id="Fill-2" fill="#020000"></path>
            <path d="M18.94799,31.321008 C19.24499,33.562008 21.28299,37.796008 26.86599,37.796008 L37.28599,37.796008 C37.28599,37.796008 37.25099,34.036008 34.00799,34.036008 L26.86599,34.036008 C23.92399,34.036008 23.36799,31.918008 23.26599,31.317008" id="Fill-3" fill="#FFFFFE"></path>
            <path d="M37.91799,38.42401 L26.86599,38.42401 C20.84499,38.42401 18.64899,33.83001 18.32799,31.40501 L19.56999,31.23901 C19.84099,33.29201 21.71499,37.16901 26.86599,37.16901 L36.58999,37.16901 C36.42799,36.25101 35.87799,34.66101 34.00799,34.66101 L26.86599,34.66101 C24.15999,34.66101 22.91399,32.98701 22.64899,31.42401 L23.88499,31.21401 C23.99499,31.87401 24.51099,33.40901 26.86599,33.40901 L34.00799,33.40901 C37.06499,33.40901 37.89699,36.27401 37.91099,37.79201 L37.91799,38.42401" id="Fill-4" fill="#020000"></path>
            <path d="M25.82299,25.325 C27.95199,23.314 29.74999,20.811 29.74999,18.1 C29.74999,11.447 18.95899,6.062 18.95899,6.062 C18.95899,6.062 8.168991,11.447 8.168991,18.1 C8.168991,20.811 9.964991,23.314 12.09299,25.325" id="Fill-5" fill="#FFFFFE"></path>
            <path d="M26.255,25.77899 L25.392,24.86799 C27.869,22.52999 29.122,20.25099 29.122,18.09999 C29.122,12.48799 20.624,7.65999 18.959,6.76999 C17.293,7.66199 8.794999,12.49199 8.794999,18.09999 C8.794999,20.25099 10.048,22.52999 12.524,24.86799 L11.662,25.77899 C8.926999,23.19599 7.540999,20.60999 7.540999,18.09999 C7.540999,11.14299 18.224,5.72699 18.678,5.50299 L18.959,5.35999 L19.238,5.50299 C19.693,5.72699 30.376,11.14299 30.376,18.09999 C30.376,20.60999 28.989,23.19599 26.255,25.77899" id="Fill-6" fill="#020000"></path>
            <polyline id="Fill-7" fill="#FFFFFE" points="22.72099 15.467 19.93299 15.467 19.93299 12.682 17.98099 12.682 17.98099 15.467 15.19499 15.467 15.19499 17.418 17.98099 17.418 17.98099 20.205 19.93299 20.205 19.93299 17.418 22.72099 17.418 22.72099 15.467"></polyline>
            <path d="M20.55999,20.833 L17.35499,20.833 L17.35499,18.046 L14.56799,18.046 L14.56799,14.841 L17.35499,14.841 L17.35499,12.054 L20.55999,12.054 L20.55999,14.841 L23.34799,14.841 L23.34799,18.046 L20.55999,18.046 L20.55999,20.833 Z M18.60899,19.578 L19.30699,19.578 L19.30699,16.793 L22.09399,16.793 L22.09399,16.094 L19.30699,16.094 L19.30699,13.311 L18.60899,13.311 L18.60899,16.094 L15.82199,16.094 L15.82199,16.793 L18.60899,16.793 L18.60899,19.578 L18.60899,19.578 Z" id="Fill-8" fill="#020000"></path>
            <path d="M21.467,3.13499 C21.467,1.75099 20.342,0.62799 18.959,0.62799 C17.573,0.62799 16.45,1.75099 16.45,3.13499 C16.45,4.51999 17.573,5.64099 18.959,5.64099 C20.342,5.64099 21.467,4.51999 21.467,3.13499" id="Fill-9" fill="#FFFFFE"></path>
            <path d="M18.95899,6.27 C17.22999,6.27 15.82199,4.865 15.82199,3.135 C15.82199,1.405 17.22999,0 18.95899,0 C20.68699,0 22.09399,1.405 22.09399,3.135 C22.09399,4.865 20.68699,6.27 18.95899,6.27 Z M18.95899,1.255 C17.92099,1.255 17.07699,2.099 17.07699,3.135 C17.07699,4.174 17.92099,5.018 18.95899,5.018 C19.99499,5.018 20.83999,4.174 20.83999,3.135 C20.83999,2.099 19.99499,1.255 18.95899,1.255 L18.95899,1.255 Z" id="Fill-10" fill="#020000"></path>
            <polyline id="Fill-11" fill="#FFFFFE" points="27.598 31.424016 10.319 31.424016 11.992 25.15202 25.925 25.15202 27.598 31.424016"></polyline>
            <path d="M28.414,32.050992 L9.502999,32.050992 L11.51,24.52299 L26.406,24.52299 L28.414,32.050992 Z M11.135,30.796992 L26.781,30.796992 L25.443,25.77699 L12.473,25.77699 L11.135,30.796992 L11.135,30.796992 Z" id="Fill-12" fill="#020000"></path>
        </g>
    </g>
</svg>