<?xml version="1.0" encoding="UTF-8"?>
<svg width="30px" height="37px" viewBox="0 0 30 37" version="1.1" xmlns="http://www.w3.org/2000/svg" xmlns:xlink="http://www.w3.org/1999/xlink">
    <!-- Generator: Sketch 41 (35326) - http://www.bohemiancoding.com/sketch -->
    <title>Page 1</title>
    <desc>Created with Sketch.</desc>
    <defs></defs>
    <g id="Page-1" stroke="none" stroke-width="1" fill="none" fill-rule="evenodd">
        <g>
            <path d="M29.328,36.2630083 C29.253,34.100008 27.485,27.764008 25.3,27.764008 L4.678002,27.764008 C2.494002,27.764008 0.7270023,34.100008 0.6500023,36.2630083 L29.328,36.2630083" id="Fill-1" fill="#FFFFFE"></path>
            <path d="M29.977,36.89102 L0,36.89102 L0.024,36.24202 C0.089,34.43902 1.74,27.13702 4.678,27.13702 L25.3,27.13702 C28.244,27.13702 29.892,34.44102 29.956,36.24202 L29.977,36.89102 Z M1.333,35.63602 L28.646,35.63602 C28.319,33.05002 26.668,28.39402 25.3,28.39402 L4.678,28.39402 C3.312,28.39402 1.664,33.05002 1.333,35.63602 L1.333,35.63602 Z" id="Fill-2" fill="#020000"></path>
            <polyline id="Fill-3" fill="#FFFFFE" points="22.67 0.62702 22.67 4.80702 17.969 4.80702 17.969 0.62702 12.011 0.62702 12.011 4.80702 7.308 4.80702 7.308 0.62702 1.873 0.62702 1.873 8.04602 6.054 10.45302 23.924 10.45302 28.104 8.04602 28.104 0.62702 22.67 0.62702"></polyline>
            <path d="M24.092,11.078 L5.886001,11.078 L1.247001,8.41 L1.247001,-7.10542736e-15 L7.935001,-7.10542736e-15 L7.935001,4.182 L11.384,4.182 L11.384,-7.10542736e-15 L18.596,-7.10542736e-15 L18.596,4.182 L22.043,4.182 L22.043,-7.10542736e-15 L28.732,-7.10542736e-15 L28.732,8.41 L24.092,11.078 Z M6.222001,9.825 L23.758,9.825 L27.478,7.685 L27.478,1.254 L23.297,1.254 L23.297,5.434 L17.341,5.434 L17.341,1.254 L12.639,1.254 L12.639,5.434 L6.681001,5.434 L6.681001,1.254 L2.500001,1.254 L2.500001,7.685 L6.222001,9.825 L6.222001,9.825 Z" id="Fill-4" fill="#020000"></path>
            <polyline id="Fill-5" fill="#FFFFFE" points="5.268001 27.697015 6.103001 10.45302 23.875 10.45302 24.712 27.697015 5.268001 27.697015"></polyline>
            <path d="M25.369,28.322011 L4.609,28.322011 L5.506,9.82501 L24.474,9.82501 L25.369,28.322011 Z M5.924,27.069011 L24.054,27.069011 L23.278,11.07801 L6.7,11.07801 L5.924,27.069011 L5.924,27.069011 Z" id="Fill-6" fill="#020000"></path>
        </g>
    </g>
</svg>