<?xml version="1.0" encoding="UTF-8"?>
<svg width="47px" height="58px" viewBox="0 0 47 58" version="1.1" xmlns="http://www.w3.org/2000/svg" xmlns:xlink="http://www.w3.org/1999/xlink">
    <!-- Generator: Sketch 41 (35326) - http://www.bohemiancoding.com/sketch -->
    <title>Group</title>
    <desc>Created with Sketch.</desc>
    <defs></defs>
    <g id="Page-1" stroke="none" stroke-width="1" fill="none" fill-rule="evenodd">
        <g id="Group">
            <g>
                <path d="M45.9472,56.8478378 C45.8297,53.4540541 43.0598333,43.5219459 39.6366667,43.5219459 L7.3288698,43.5219459 C3.9072698,43.5219459 1.13897027,53.4540541 1.01833694,56.8478378 L45.9472,56.8478378" id="Fill-1" fill="#020000"></path>
                <path d="M46.9639667,57.8275676 L0,57.8275676 L0.0376,56.8149189 C0.139433333,53.9854595 2.726,42.5422162 7.32886667,42.5422162 L39.6366667,42.5422162 C44.2489333,42.5422162 46.8308,53.9885946 46.9310667,56.8149189 L46.9639667,57.8275676 Z M2.08836667,55.8634054 L44.8787333,55.8634054 C44.3664333,51.8065405 41.7798667,44.5063784 39.6366667,44.5063784 L7.32886667,44.5063784 C5.1888,44.5063784 2.60693333,51.8065405 2.08836667,55.8634054 L2.08836667,55.8634054 Z" id="Fill-2" fill="#FFFFFE"></path>
                <polyline id="Fill-3" fill="#020000" points="35.5163333 0.982864865 35.5163333 7.53686486 28.1514333 7.53686486 28.1514333 0.982864865 18.8172333 0.982864865 18.8172333 7.53686486 11.4492 7.53686486 11.4492 0.982864865 2.93436667 0.982864865 2.93436667 12.6142162 9.4846 16.3842162 37.4809333 16.3842162 44.0296 12.6142162 44.0296 0.982864865 35.5163333 0.982864865"></polyline>
                <path d="M37.7441333,17.3639459 L9.22140157,17.3639459 L1.9536349,13.1832432 L1.9536349,0 L12.4315016,0 L12.4315016,6.55243243 L17.8349333,6.55243243 L17.8349333,0 L29.1337333,0 L29.1337333,6.55243243 L34.5340333,6.55243243 L34.5340333,0 L45.0134667,0 L45.0134667,13.1832432 L37.7441333,17.3639459 Z M9.74780157,15.3982162 L37.2208667,15.3982162 L43.0488667,12.0436216 L43.0488667,1.96416216 L36.4986333,1.96416216 L36.4986333,8.51972973 L27.1675667,8.51972973 L27.1675667,1.96416216 L19.8011,1.96416216 L19.8011,8.51972973 L10.4669016,8.51972973 L10.4669016,1.96416216 L3.91666823,1.96416216 L3.91666823,12.0436216 L9.74780157,15.3982162 L9.74780157,15.3982162 Z" id="Fill-4" fill="#FFFFFE"></path>
                <polyline id="Fill-5" fill="#020000" points="8.25320157 43.4122131 9.56136823 16.3842162 37.4041667 16.3842162 38.7154667 43.4122131 8.25320157 43.4122131"></polyline>
                <path d="M39.7447667,44.3950764 L7.22076667,44.3950764 L8.62606667,15.3982162 L38.3426,15.3982162 L39.7447667,44.3950764 Z M9.28093333,42.4277791 L37.6846,42.4277791 L36.4688667,17.3639459 L10.4966667,17.3639459 L9.28093333,42.4277791 L9.28093333,42.4277791 Z" id="Fill-6" fill="#FFFFFE"></path>
            </g>
        </g>
    </g>
</svg>