<?xml version="1.0" encoding="UTF-8"?>
<svg width="35px" height="39px" viewBox="0 0 35 39" version="1.1" xmlns="http://www.w3.org/2000/svg" xmlns:xlink="http://www.w3.org/1999/xlink">
    <!-- Generator: Sketch 41 (35326) - http://www.bohemiancoding.com/sketch -->
    <title>Page 1</title>
    <desc>Created with Sketch.</desc>
    <defs></defs>
    <g id="Page-1" stroke="none" stroke-width="1" fill="none" fill-rule="evenodd">
        <g>
            <polyline id="Fill-1" fill="#020000" points="23.31512 13.202 10.77212 13.202 10.30212 14.299 13.90612 26.579 20.28212 26.579 23.67812 14.143 23.31512 13.202"></polyline>
            <polyline id="Fill-2" fill="#020000" points="18.00312 7.942 18.00312 5.157 20.79012 5.157 20.79012 3.204 18.00312 3.204 18.00312 0.417 16.05312 0.417 16.05312 3.204 13.26412 3.204 13.26412 5.157 16.05312 5.157 16.05312 7.942"></polyline>
            <polyline id="Fill-3" fill="#FFFFFE" points="18.42312 7.942 17.58612 7.942 17.58612 4.739 20.37312 4.739 20.37312 3.623 17.58612 3.623 17.58612 0.837 16.47112 0.837 16.47112 3.623 13.68412 3.623 13.68412 4.739 16.47112 4.739 16.47112 7.942 15.63412 7.942 15.63412 5.575 12.84712 5.575 12.84712 2.787 15.63412 2.787 15.63412 0 18.42312 0 18.42312 2.787 21.20812 2.787 21.20812 5.575 18.42312 5.575 18.42312 7.942"></polyline>
            <path d="M23.55711,13.934 C22.55711,10.506 20.01511,8.066 17.02811,8.066 C14.04111,8.066 11.49911,10.506 10.49911,13.934" id="Fill-4" fill="#020000"></path>
            <path d="M22.95213,14.11 C22.01013,10.87 19.62813,8.691 17.02813,8.691 C14.42813,8.691 12.04613,10.87 11.10313,14.11 L9.899125,13.757 C10.99713,9.979 13.86313,7.437 17.02813,7.437 C20.19213,7.437 23.05913,9.979 24.15713,13.757 L22.95213,14.11" id="Fill-5" fill="#FFFFFE"></path>
            <path d="M28.04911,29.469999 C29.21611,28.518 30.30411,27.307 31.21311,25.863 C34.32211,20.926 34.16211,15.237 30.85711,13.159 C27.55211,11.078 22.35611,13.397 19.24711,18.336 C17.75611,20.7 17.02811,23.237 17.02811,25.467 C17.02811,23.237 16.29611,20.7 14.80711,18.336 C11.69811,13.397 6.503114,11.078 3.197114,13.159 C-0.1058858,15.237 -0.2658858,20.926 2.840114,25.863 C3.749114,27.307 4.839114,28.518 6.007114,29.469999" id="Fill-6" fill="#020000"></path>
            <path d="M28.44412,29.957 L27.65112,28.983 C28.81712,28.034 29.83912,26.87 30.68212,25.528 C32.12212,23.247 32.87712,20.734 32.81312,18.457 C32.75112,16.274 31.93912,14.579 30.52212,13.69 C29.10712,12.799 27.23112,12.798 25.23612,13.687 C23.15312,14.614 21.21612,16.383 19.77812,18.667 C18.41012,20.843 17.65612,23.257 17.65312,25.468 L16.40112,25.467 C16.40112,23.26 15.64612,20.846 14.27712,18.667 C11.35812,14.032 6.538117,11.798 3.530117,13.69 C0.5261169,15.581 0.4531169,20.893 3.372117,25.528 C4.214117,26.867 5.234117,28.029 6.402117,28.983 L5.613117,29.956 C4.335117,28.915 3.227117,27.653 2.311117,26.195 C-0.9748831,20.975 -0.7268831,14.89 2.864117,12.63 C6.453117,10.371 12.05112,12.778 15.33712,17.999 C16.06612,19.161 16.63812,20.383 17.02812,21.618 C17.41912,20.383 17.98712,19.159 18.71712,17.999 C20.28612,15.508 22.41712,13.568 24.72312,12.541 C27.11512,11.477 29.41112,11.508 31.19312,12.63 C32.97212,13.749 33.99312,15.807 34.06812,18.422 C34.13812,20.943 33.31312,23.706 31.74312,26.195 C30.82612,27.654 29.71512,28.921 28.44412,29.957" id="Fill-7" fill="#FFFFFE"></path>
            <path d="M6.020126,35.741 L6.020126,29.749 C6.020126,28.402 10.94813,27.311 17.02813,27.311 C23.10713,27.311 28.03713,28.402 28.03713,29.749 L28.03713,35.741" id="Fill-8" fill="#020000"></path>
            <path d="M28.66212,35.741 L27.40912,35.741 L27.40912,29.749 C27.20612,29.128 23.45812,27.936 17.02812,27.936 C10.59912,27.936 6.851118,29.128 6.645118,29.765 L6.647118,35.741 L5.393118,35.741 L5.393118,29.749 C5.393118,27.33 12.70712,26.683 17.02812,26.683 C21.34812,26.683 28.66212,27.33 28.66212,29.749 L28.66212,35.741" id="Fill-9" fill="#FFFFFE"></path>
            <path d="M28.03713,35.741001 C28.03713,37.088001 23.10713,38.1800005 17.02813,38.1800005 C10.94813,38.1800005 6.020126,37.088001 6.020126,35.741001 C6.020126,34.394001 10.94813,33.303001 17.02813,33.303001 C23.10713,33.303001 28.03713,34.394001 28.03713,35.741001" id="Fill-10" fill="#020000"></path>
            <path d="M17.02812,38.805 C12.70712,38.805 5.393118,38.163 5.393118,35.741 C5.393118,33.322 12.70712,32.676 17.02812,32.676 C21.34812,32.676 28.66212,33.322 28.66212,35.741 C28.66212,38.163 21.34812,38.805 17.02812,38.805 Z M17.02812,33.932 C10.59912,33.932 6.851118,35.12 6.645118,35.758 C6.851118,36.363 10.59912,37.552 17.02812,37.552 C23.45612,37.552 27.20612,36.363 27.41112,35.724 C27.20612,35.12 23.45812,33.932 17.02812,33.932 L17.02812,33.932 Z" id="Fill-11" fill="#FFFFFE"></path>
        </g>
    </g>
</svg>