<?xml version="1.0" encoding="UTF-8"?>
<svg width="35px" height="39px" viewBox="0 0 35 39" version="1.1" xmlns="http://www.w3.org/2000/svg" xmlns:xlink="http://www.w3.org/1999/xlink">
    <!-- Generator: Sketch 41 (35326) - http://www.bohemiancoding.com/sketch -->
    <title>Page 1</title>
    <desc>Created with Sketch.</desc>
    <defs></defs>
    <g id="Page-1" stroke="none" stroke-width="1" fill="none" fill-rule="evenodd">
        <g>
            <polyline id="Fill-1" fill="#FFFFFE" points="23.31512 13.20099 10.77212 13.20099 10.30212 14.29499 13.90612 26.57699 20.28212 26.57699 23.67812 14.14099 23.31512 13.20099"></polyline>
            <polyline id="Fill-2" fill="#FFFFFE" points="18.00312 7.93997 18.00312 5.15297 20.79012 5.15297 20.79012 3.19997 18.00312 3.19997 18.00312 0.41697 16.05312 0.41697 16.05312 3.19997 13.26412 3.19997 13.26412 5.15297 16.05312 5.15297 16.05312 7.93997"></polyline>
            <polyline id="Fill-3" fill="#020000" points="18.42312 7.94 17.58612 7.94 17.58612 4.735 20.37312 4.735 20.37312 3.62 17.58612 3.62 17.58612 0.833 16.47112 0.833 16.47112 3.62 13.68412 3.62 13.68412 4.735 16.47112 4.735 16.47112 7.94 15.63412 7.94 15.63412 5.574 12.84712 5.574 12.84712 2.785 15.63412 2.785 15.63412 -7.10542736e-15 18.42312 -7.10542736e-15 18.42312 2.785 21.20812 2.785 21.20812 5.574 18.42312 5.574 18.42312 7.94"></polyline>
            <path d="M23.55711,13.93198 C22.55711,10.50198 20.01511,8.06098 17.02811,8.06098 C14.04111,8.06098 11.49911,10.50198 10.49911,13.93198" id="Fill-4" fill="#FFFFFE"></path>
            <path d="M22.95213,14.10698 C22.01013,10.86398 19.62813,8.69098 17.02813,8.69098 C14.42813,8.69098 12.04613,10.86398 11.10313,14.10698 L9.899125,13.75898 C10.99713,9.97398 13.86313,7.43598 17.02813,7.43598 C20.19213,7.43598 23.05913,9.97398 24.15713,13.75898 L22.95213,14.10698" id="Fill-5" fill="#020000"></path>
            <path d="M28.04911,29.466975 C29.21611,28.51697 30.30411,27.30597 31.21311,25.85997 C34.32211,20.92297 34.16211,15.23697 30.85711,13.15297 C27.55211,11.07797 22.35611,13.39497 19.24711,18.33097 C17.75611,20.69797 17.02811,23.23297 17.02811,25.46497 C17.02811,23.23297 16.29611,20.69797 14.80711,18.33097 C11.69811,13.39497 6.503114,11.07797 3.197114,13.15297 C-0.1058858,15.23697 -0.2658858,20.92297 2.840114,25.85997 C3.749114,27.30597 4.839114,28.51697 6.007114,29.466975" id="Fill-6" fill="#FFFFFE"></path>
            <path d="M28.44412,29.954988 L27.65112,28.981988 C28.81712,28.03099 29.83912,26.86899 30.68212,25.52699 C32.12212,23.24099 32.87712,20.72999 32.81312,18.45199 C32.75112,16.26999 31.93912,14.57699 30.52212,13.68899 C27.51712,11.79399 22.69712,14.02599 19.77812,18.66599 C18.41012,20.84299 17.65612,23.25299 17.65312,25.46699 L16.40112,25.46499 C16.40112,23.25699 15.64612,20.84299 14.27712,18.66599 C11.36012,14.02799 6.538117,11.79599 3.530117,13.68899 C0.5261169,15.57899 0.4531169,20.89199 3.372117,25.52699 C4.214117,26.86499 5.234117,28.02799 6.402117,28.981988 L5.613117,29.954988 C4.335117,28.913988 3.227117,27.64899 2.311117,26.19399 C-0.9748831,20.97699 -0.7268831,14.88799 2.864117,12.62499 C6.453117,10.36599 12.05112,12.77599 15.33712,17.99799 C16.06612,19.15799 16.63812,20.38199 17.02812,21.61399 C17.41912,20.38199 17.98712,19.15799 18.71712,17.99799 C22.00412,12.77599 27.60112,10.36199 31.19312,12.62499 C32.97212,13.74399 33.99312,15.80499 34.06812,18.41999 C34.13812,20.94099 33.31312,23.70099 31.74312,26.19399 C30.82612,27.65299 29.71512,28.915988 28.44412,29.954988" id="Fill-7" fill="#020000"></path>
            <path d="M6.020126,35.739972 L6.020126,29.744972 C6.020126,28.39797 10.94813,27.30997 17.02813,27.30997 C23.10713,27.30997 28.03713,28.39797 28.03713,29.744972 L28.03713,35.739972" id="Fill-8" fill="#FFFFFE"></path>
            <path d="M28.66212,35.739998 L27.40912,35.739998 L27.40912,29.744998 C27.20612,29.125998 23.45812,27.937 17.02812,27.937 C10.59912,27.937 6.851118,29.125998 6.645118,29.765998 L6.647118,35.739998 L5.393118,35.739998 L5.393118,29.744998 C5.393118,27.328 12.70712,26.682 17.02812,26.682 C21.34812,26.682 28.66212,27.328 28.66212,29.744998 L28.66212,35.739998" id="Fill-9" fill="#020000"></path>
            <path d="M28.03713,35.739971 C28.03713,37.085971 23.10713,38.1759712 17.02813,38.1759712 C10.94813,38.1759712 6.020126,37.085971 6.020126,35.739971 C6.020126,34.391971 10.94813,33.300971 17.02813,33.300971 C23.10713,33.300971 28.03713,34.391971 28.03713,35.739971" id="Fill-10" fill="#FFFFFE"></path>
            <path d="M17.02812,38.80399 C12.70712,38.80399 5.393118,38.15699 5.393118,35.73999 C5.393118,33.31899 12.70712,32.67199 17.02812,32.67199 C21.34812,32.67199 28.66212,33.31899 28.66212,35.73999 C28.66212,38.15699 21.34812,38.80399 17.02812,38.80399 Z M17.02812,33.92699 C10.59912,33.92699 6.851118,35.11699 6.645118,35.75499 C6.851118,36.35799 10.60112,37.54899 17.02812,37.54899 C23.45412,37.54899 27.20612,36.35799 27.41112,35.72299 C27.20612,35.11699 23.45812,33.92699 17.02812,33.92699 L17.02812,33.92699 Z" id="Fill-11" fill="#020000"></path>
        </g>
    </g>
</svg>