<?xml version="1.0" encoding="UTF-8"?>
<svg width="36px" height="38px" viewBox="0 0 36 38" version="1.1" xmlns="http://www.w3.org/2000/svg" xmlns:xlink="http://www.w3.org/1999/xlink">
    <!-- Generator: Sketch 41 (35326) - http://www.bohemiancoding.com/sketch -->
    <title>Page 1</title>
    <desc>Created with Sketch.</desc>
    <defs></defs>
    <g id="Page-1" stroke="none" stroke-width="1" fill="none" fill-rule="evenodd">
        <g>
            <path d="M15.536,19.25901 C15.536,19.25901 16.319,20.04201 16.111,22.07801 C15.901,24.11701 14.961,25.26801 14.177,26.52301 C13.394,27.776006 12.687,28.570006 12.283,29.349006 C11.878,30.125006 11.616,30.649006 11.616,30.649006 L30.271,30.649006 L29.279,21.81701 L16.791,12.72301 L15.536,19.25901" id="Fill-1" fill="#FFFFFE"></path>
            <polyline id="Fill-2" fill="#FFFFFE" points="9.944993 7.95401 11.30399 2.17401 12.52099 4.32901"></polyline>
            <polyline id="Fill-3" fill="#020000" points="10.555 8.09702 9.334999 7.80902 11.06 0.46602 13.069 4.02202 11.977 4.63902 11.546 3.87702 10.555 8.09702"></polyline>
            <path d="M12.82399,29.662016 L11.74199,29.033016 C12.27599,28.113016 12.87499,27.21502 13.51899,26.35402 C16.34699,22.58502 15.34699,20.23102 15.33599,20.20902 L16.46599,19.66402 C16.52399,19.78702 17.84699,22.67302 14.52099,27.10702 C13.90699,27.927016 13.33499,28.788016 12.82399,29.662016" id="Fill-4" fill="#020000"></path>
            <path d="M17.677,14.085 C17.677,14.085 18.306,17.53 15.587,19.937 C13.353,21.914 11.408,21.887 11.408,21.887 L6.390999,27.983999 L0.8169988,24.952 L6.390999,12.97 L6.946999,10.041 L12.034,6.559 L13.184,1.752 L15.692,6.456 C15.692,6.456 22.38,7.709 26.98,15.338 C29.694,19.84 30.475,25.309 30.635,29.260999" id="Fill-5" fill="#FFFFFE"></path>
            <path d="M30.007,29.286005 C29.856,25.517 29.114,20.095 26.443,15.661 C22.04,8.359 15.642,7.084 15.577,7.073 L15.281,7.017 L13.41,3.507 L12.588,6.941 L7.515,10.414 L6.96,13.236 L1.634,24.686 L6.237,27.187 L11.115,21.256 L11.415,21.26 C11.429,21.26 13.173,21.237 15.172,19.468 C17.599,17.323 17.066,14.229 17.061,14.196 L18.295,13.972 C18.323,14.127 18.953,17.8 16.004,20.406 C14.128,22.066 12.413,22.42 11.722,22.494 L6.546,28.782005 L0,25.223 L5.79,12.777 L6.382,9.673 L11.482,6.178 L12.958,0 L16.111,5.905 C17.51,6.253 23.329,8.066 27.517,15.014 C30.325,19.672 31.102,25.32 31.26,29.236005 L30.007,29.286005" id="Fill-6" fill="#020000"></path>
            <polyline id="Fill-7" fill="#020000" points="5.325 27.42 4.324 26.668 6.831 23.321 7.834 24.076 5.325 27.42"></polyline>
            <path d="M10.267,12.396 C10.267,12.396 10.557,13.8 9.858997,14.791 C9.160997,15.782 7.739997,15.981 7.739997,15.981 C7.739997,15.981 7.450997,14.579 8.149997,13.588 C8.847997,12.595 10.267,12.396 10.267,12.396" id="Fill-8" fill="#020000"></path>
            <path d="M4.355995,22.6 C4.706995,22.802 4.728995,23.411 4.409995,23.961 C4.092995,24.511 3.550995,24.792 3.201995,24.588 C2.851995,24.384 2.826995,23.777 3.144995,23.228 C3.463995,22.677 4.005995,22.397 4.355995,22.6" id="Fill-9" fill="#020000"></path>
            <path d="M34.526,37.07502 C34.455,35.09102 32.833,29.28002 30.831,29.28002 L11.443,29.28002 C9.441999,29.28002 7.821999,35.09102 7.749999,37.07502 L34.526,37.07502" id="Fill-10" fill="#FFFFFE"></path>
            <path d="M35.17299,37.70302 L7.100994,37.70302 L7.121994,37.05402 C7.181994,35.39002 8.712994,28.65202 11.44299,28.65202 L30.83099,28.65202 C33.56299,28.65202 35.09099,35.39002 35.15199,37.05402 L35.17299,37.70302 Z M8.434994,36.44802 L33.83899,36.44802 C33.52699,34.07802 32.05199,29.90702 30.83099,29.90702 L11.44299,29.90702 C10.22399,29.90702 8.748994,34.07802 8.434994,36.44802 L8.434994,36.44802 Z" id="Fill-11" fill="#020000"></path>
        </g>
    </g>
</svg>