<?xml version="1.0" encoding="UTF-8"?>
<svg width="47px" height="51px" viewBox="0 0 47 51" version="1.1" xmlns="http://www.w3.org/2000/svg" xmlns:xlink="http://www.w3.org/1999/xlink">
    <!-- Generator: Sketch 41 (35326) - http://www.bohemiancoding.com/sketch -->
    <title>Group</title>
    <desc>Created with Sketch.</desc>
    <defs></defs>
    <g id="Page-1" stroke="none" stroke-width="1" fill="none" fill-rule="evenodd">
        <g id="Group">
            <g>
                <path d="M20.7240483,25.8916762 C20.7240483,25.8916762 21.7685211,26.9443364 21.4910622,29.6828661 C21.2109354,32.4267735 19.9570344,33.9674485 18.9112277,35.6573513 C17.8667548,37.3432222 16.9236612,38.4120151 16.3847506,39.4579533 C15.844506,40.5012027 15.4950145,41.2029762 15.4950145,41.2029762 L40.3796129,41.2029762 L39.0563472,29.3333238 L22.3981395,17.1087529 L20.7240483,25.8916762" id="Fill-1" fill="#020000"></path>
                <polyline id="Fill-2" fill="#020000" points="13.2659961 10.694651 15.0788127 2.92136728 16.7022143 5.82256865"></polyline>
                <polyline id="Fill-3" fill="#FFFFFE" points="13.8075839 10.8223684 12.7217551 10.568278 14.8627283 1.39144737 17.1904487 5.54696796 16.2193424 6.10220252 15.29359 4.45128719 13.8075839 10.8223684"></polyline>
                <path d="M17.1090785,39.8814373 L15.6617566,39.0344693 C16.3740791,37.8016604 17.1744414,36.589016 18.033497,35.4314931 C21.8058714,30.3644737 20.4719342,27.1997712 20.4572609,27.1688501 L21.9646099,26.4401888 C22.0419783,26.6028604 23.8067772,30.4814359 19.3701021,36.4451659 C18.5497307,37.5489144 17.7867186,38.7064373 17.1090785,39.8814373" id="Fill-4" fill="#FFFFFE"></path>
                <path d="M23.5800079,18.9371281 C23.5800079,18.9371281 24.4190543,23.5712529 20.7920791,26.8045195 C17.8120634,29.4610412 15.2175556,29.4287757 15.2175556,29.4287757 L8.5251913,37.6228574 L1.08982509,33.5493421 L8.5251913,17.4354405 L9.26686038,13.5030892 L16.0526002,8.82191076 L17.586628,2.35672197 L20.9321425,8.68209382 C20.9321425,8.68209382 29.8535145,10.366619 35.9896256,20.6216533 C39.6099312,26.6768021 40.6517361,34.0279462 40.8651661,39.3436812" id="Fill-5" fill="#020000"></path>
                <path d="M40.0274535,39.3745995 C39.826029,34.3075801 38.8362476,27.0155892 35.2733013,21.0599256 C29.3999758,11.2404748 20.8654457,9.5250286 20.7787397,9.51024027 L20.3838943,9.43495423 L17.8880978,4.71613272 L16.7916014,9.33412471 L10.024538,14.0005149 L9.2842029,17.7903604 L2.17965338,33.183667 L8.3197663,36.551373 L14.826712,28.579119 L15.2268931,28.5831522 C15.2455682,28.5831522 17.5719547,28.5508867 20.2384952,26.1753432 C23.4759607,23.291619 22.7649722,19.1293764 22.7583025,19.0877002 L24.404381,18.7852117 C24.4417313,18.9949371 25.2821117,23.9302059 21.3483309,27.4363844 C18.8458647,29.6667334 16.5581624,30.1413043 15.6364118,30.2448227 L8.7319529,38.6970252 L0,33.9096396 L7.72349638,17.1773169 L8.5131872,13.0043192 L15.3162669,8.3083524 L17.2851582,0 L21.4910622,7.94267735 C23.3572403,8.40783753 31.1194209,10.8452231 36.7059499,20.1874142 C40.4516455,26.4495995 41.4881147,34.0427346 41.6988768,39.3060355 L40.0274535,39.3745995" id="Fill-6" fill="#FFFFFE"></path>
                <polyline id="Fill-7" fill="#FFFFFE" points="6.88044807 36.6965675 5.98804408 36.0203375 9.33622645 31.5273741 10.2272965 32.1995709 6.88044807 36.6965675"></polyline>
                <path d="M13.6955332,16.6637586 C13.6955332,16.6637586 14.082375,18.553976 13.1512828,19.8849256 C12.2201947,21.2185641 10.3246699,21.4901316 10.3246699,21.4901316 C10.3246699,21.4901316 9.93916206,19.5985698 10.8715842,18.2689645 C11.8026723,16.9339817 13.6955332,16.6637586 13.6955332,16.6637586" id="Fill-8" fill="#FFFFFE"></path>
                <path d="M5.81062377,30.385984 C6.27883572,30.6575515 6.30818234,31.4749428 5.88265637,32.2157037 C5.45979828,32.951087 4.73680432,33.3328947 4.27126024,33.0559497 C3.80438222,32.7857265 3.77103379,31.9696796 4.19522582,31.2275744 C4.62075178,30.4895023 5.34374575,30.1117277 5.81062377,30.385984" id="Fill-9" fill="#FFFFFE"></path>
                <path d="M46.0555157,49.8474267 C45.9608062,47.1774613 43.79716,39.3651901 41.1266178,39.3651901 L15.2642434,39.3651901 C12.5950337,39.3651901 10.4340554,47.1774613 10.338012,49.8474267 L46.0555157,49.8474267" id="Fill-10" fill="#020000"></path>
                <path d="M46.9185597,50.6876716 L9.47228004,50.6876716 L9.50029272,49.8191934 C9.58032895,47.580778 11.6225868,38.5209096 15.26423,38.5209096 L41.1266044,38.5209096 C44.7709208,38.5209096 46.8091769,47.580778 46.890547,49.8191934 L46.9185597,50.6876716 Z M11.2517523,49.0031465 L45.1390875,49.0031465 C44.7228991,45.8209668 42.7553417,40.2067792 41.1266044,40.2067792 L15.26423,40.2067792 C13.6381606,40.2067792 11.6706085,45.8209668 11.2517523,49.0031465 L11.2517523,49.0031465 Z" id="Fill-11" fill="#FFFFFE"></path>
            </g>
        </g>
    </g>
</svg>