<?xml version="1.0" encoding="UTF-8"?>
<svg width="25px" height="31px" viewBox="0 0 25 31" version="1.1" xmlns="http://www.w3.org/2000/svg" xmlns:xlink="http://www.w3.org/1999/xlink">
    <!-- Generator: Sketch 41 (35326) - http://www.bohemiancoding.com/sketch -->
    <title>Page 1</title>
    <desc>Created with Sketch.</desc>
    <defs></defs>
    <g id="Page-1" stroke="none" stroke-width="1" fill="none" fill-rule="evenodd">
        <g>
            <path d="M8.710303,13.167 C8.710303,13.167 8.920303,16.721 7.803303,18.81 C6.539303,21.183002 5.085303,22.434002 2.788303,24.941002 C0.4883029,27.450002 0.6293029,30.2370017 0.6293029,30.2370017 L23.6183,30.2370017 C23.6183,30.2370017 23.7573,27.450002 21.4583,24.941002 C19.1593,22.434002 17.7093,21.183002 16.4403,18.81 C15.3263,16.721 15.5333,13.167 15.5333,13.167" id="Fill-1" fill="#020000"></path>
            <path d="M24.2153,30.864 L0.03130261,30.864 L0.00230261,30.269 C-0.00269739,30.144 -0.1236974,27.188 2.325303,24.517 C2.821303,23.975 3.281303,23.49 3.707303,23.038 C5.210303,21.451 6.297303,20.303 7.249303,18.515 C8.271303,16.604 8.086303,13.237 8.084303,13.204 L9.336303,13.131 C9.345303,13.284 9.542303,16.885 8.357303,19.105 C7.323303,21.041 6.189303,22.242 4.618303,23.901 C4.197303,24.348 3.741303,24.827 3.249303,25.366 C1.764303,26.984 1.381303,28.722 1.284303,29.61 L22.9583,29.61 C22.8583,28.717 22.4683,26.972 20.9963,25.366 C20.5033,24.828 20.0523,24.35 19.6323,23.905 C18.0583,22.243 16.9223,21.043 15.8893,19.105 C14.7023,16.885 14.9003,13.284 14.9093,13.131 L16.1633,13.204 C16.1593,13.237 15.9783,16.608 16.9953,18.515 C17.9493,20.304 19.0363,21.454 20.5423,23.044 C20.9663,23.492 21.4233,23.975 21.9193,24.517 C24.3683,27.188 24.2513,30.144 24.2443,30.269 L24.2153,30.864" id="Fill-2" fill="#FFFFFE"></path>
            <path d="M14.6833,9.196 C15.9513,8.361 16.7903,6.928 16.7903,5.293 C16.7903,2.715 14.7003,0.626 12.1223,0.626 C9.544303,0.626 7.456303,2.715 7.456303,5.293 C7.456303,6.928 8.294303,8.361 9.564303,9.196 C6.824303,9.803 4.876303,11.35 4.876303,13.167 L19.3683,13.167 C19.3683,11.35 17.4203,9.803 14.6833,9.196" id="Fill-3" fill="#020000"></path>
            <path d="M19.9963,13.793 L4.248303,13.793 L4.248303,13.167 C4.248303,11.353 5.787303,9.755 8.257303,8.909 C7.348303,7.942 6.829303,6.656 6.829303,5.293 C6.829303,2.376 9.203303,0 12.1223,0 C15.0413,0 17.4183,2.376 17.4183,5.293 C17.4183,6.656 16.8993,7.942 15.9903,8.909 C18.4593,9.755 19.9963,11.353 19.9963,13.167 L19.9963,13.793 Z M5.608303,12.539 L18.6373,12.539 C18.2333,11.337 16.6913,10.283 14.5463,9.806 L13.0993,9.487 L14.3383,8.672 C15.4823,7.92 16.1643,6.658 16.1643,5.293 C16.1643,3.066 14.3513,1.254 12.1223,1.254 C9.894303,1.254 8.082303,3.066 8.082303,5.293 C8.082303,6.658 8.765303,7.92 9.909303,8.672 L11.1483,9.487 L9.699303,9.806 C7.556303,10.283 6.012303,11.337 5.608303,12.539 L5.608303,12.539 Z" id="Fill-4" fill="#FFFFFE"></path>
        </g>
    </g>
</svg>