<?xml version="1.0" encoding="UTF-8"?>
<svg width="25px" height="31px" viewBox="0 0 25 31" version="1.1" xmlns="http://www.w3.org/2000/svg" xmlns:xlink="http://www.w3.org/1999/xlink">
    <!-- Generator: Sketch 41 (35326) - http://www.bohemiancoding.com/sketch -->
    <title>Page 1</title>
    <desc>Created with Sketch.</desc>
    <defs></defs>
    <g id="Page-1" stroke="none" stroke-width="1" fill="none" fill-rule="evenodd">
        <g>
            <path d="M8.710303,13.16701 C8.710303,13.16701 8.920303,16.71901 7.803303,18.81101 C6.539303,21.181008 5.085303,22.431008 2.788303,24.938008 C0.4883029,27.445008 0.6293029,30.2350076 0.6293029,30.2350076 L23.6183,30.2350076 C23.6183,30.2350076 23.7573,27.445008 21.4583,24.938008 C19.1593,22.431008 17.7093,21.181008 16.4403,18.81101 C15.3263,16.71901 15.5333,13.16701 15.5333,13.16701" id="Fill-1" fill="#FFFFFE"></path>
            <path d="M24.2153,30.86398 L0.03130261,30.86398 L0.00230261,30.26798 C-0.00269739,30.14098 -0.1236974,27.18598 2.325303,24.51698 C2.823303,23.97198 3.282303,23.48598 3.709303,23.03598 C5.212303,21.44998 6.298303,20.29998 7.249303,18.51298 C8.271303,16.60298 8.086303,13.23598 8.084303,13.20098 L9.336303,13.13198 C9.345303,13.28198 9.542303,16.88598 8.357303,19.10698 C7.323303,21.04098 6.190303,22.23898 4.619303,23.89698 C4.198303,24.34398 3.743303,24.82298 3.249303,25.36198 C1.764303,26.97998 1.381303,28.72298 1.284303,29.60898 L22.9583,29.60898 C22.8583,28.71898 22.4683,26.96898 20.9963,25.36198 C20.5033,24.82498 20.0493,24.34598 19.6283,23.90098 C18.0573,22.24198 16.9223,21.04098 15.8893,19.10698 C14.7023,16.88598 14.9003,13.28198 14.9093,13.13198 L16.1633,13.20098 C16.1593,13.23598 15.9783,16.60698 16.9953,18.51298 C17.9493,20.30198 19.0343,21.44998 20.5403,23.03798 C20.9663,23.48798 21.4223,23.97198 21.9193,24.51698 C24.3683,27.18598 24.2513,30.14098 24.2443,30.26798 L24.2153,30.86398" id="Fill-2" fill="#020000"></path>
            <path d="M14.6833,9.19398 C15.9513,8.36098 16.7903,6.92398 16.7903,5.29098 C16.7903,2.71398 14.7003,0.62598 12.1223,0.62598 C9.544303,0.62598 7.456303,2.71398 7.456303,5.29098 C7.456303,6.92398 8.294303,8.36098 9.564303,9.19398 C6.824303,9.80398 4.876303,11.34898 4.876303,13.16698 L19.3683,13.16698 C19.3683,11.34898 17.4203,9.80398 14.6833,9.19398" id="Fill-3" fill="#FFFFFE"></path>
            <path d="M19.9963,13.792 L4.248303,13.792 L4.248303,13.167 C4.248303,11.35 5.787303,9.752 8.257303,8.909 C7.347303,7.94 6.829303,6.654 6.829303,5.291 C6.829303,2.374 9.203303,0 12.1223,0 C15.0413,0 17.4183,2.374 17.4183,5.291 C17.4183,6.654 16.9003,7.94 15.9903,8.909 C18.4593,9.752 19.9963,11.35 19.9963,13.167 L19.9963,13.792 Z M5.608303,12.537 L18.6383,12.537 C18.2333,11.336 16.6913,10.283 14.5463,9.806 L13.0973,9.484 L14.3393,8.67 C15.4823,7.917 16.1643,6.656 16.1643,5.291 C16.1643,3.065 14.3513,1.251 12.1223,1.251 C9.894303,1.251 8.082303,3.065 8.082303,5.291 C8.082303,6.656 8.765303,7.917 9.907303,8.67 L11.1483,9.484 L9.699303,9.806 C7.556303,10.283 6.012303,11.336 5.608303,12.537 L5.608303,12.537 Z" id="Fill-4" fill="#020000"></path>
        </g>
    </g>
</svg>