<?xml version="1.0" encoding="UTF-8"?>
<svg width="37px" height="36px" viewBox="0 0 37 36" version="1.1" xmlns="http://www.w3.org/2000/svg" xmlns:xlink="http://www.w3.org/1999/xlink">
    <!-- Generator: Sketch 41 (35326) - http://www.bohemiancoding.com/sketch -->
    <title>Page 1</title>
    <desc>Created with Sketch.</desc>
    <defs></defs>
    <g id="Page-1" stroke="none" stroke-width="1" fill="none" fill-rule="evenodd">
        <g>
            <path d="M29.44198,26.547001 L33.65598,9.7 C34.66398,9.861 35.67898,9.305 36.05798,8.314 C36.48898,7.182 35.91998,5.914 34.78898,5.48 C33.65598,5.049 32.38698,5.617 31.95398,6.751 C31.57598,7.743 31.96398,8.834 32.82498,9.38 L25.72298,22.54 L26.50698,6.386 C27.52498,6.363 28.42198,5.629 28.61298,4.584 C28.82898,3.392 28.03898,2.25 26.84598,2.033 C25.65098,1.815 24.51198,2.608 24.29398,3.799 C24.10498,4.845 24.68498,5.845 25.62998,6.225 L20.89798,21.555 L18.90698,4.972 C19.90598,4.768 20.65498,3.883 20.65498,2.824 C20.65498,1.611 19.67398,0.629 18.46098,0.629 C17.24998,0.629 16.26698,1.611 16.26698,2.824 C16.26698,3.883 17.01798,4.768 18.01598,4.972 L15.99698,21.781 L11.19598,6.225 C12.14298,5.845 12.72398,4.845 12.53398,3.799 C12.31598,2.608 11.17298,1.815 9.98198,2.033 C8.78798,2.25 7.99798,3.392 8.21398,4.584 C8.40298,5.629 9.29898,6.363 10.31998,6.386 L11.09198,22.331 L4.00298,9.38 C4.86198,8.834 5.24798,7.743 4.87198,6.751 C4.43998,5.617 3.17098,5.049 2.03998,5.48 C0.9059803,5.914 0.3379803,7.182 0.7689803,8.314 C1.14898,9.305 2.16398,9.861 3.16998,9.7 L7.38398,26.547001" id="Fill-1" fill="#020000"></path>
            <path d="M30.05098,26.698999 L28.83498,26.393999 L32.70298,10.928 L24.96198,25.269 L25.81198,7.761 L20.62798,24.56 L18.46098,6.518 L16.26698,24.784 L11.01298,7.761 L11.84998,25.023 L4.114977,10.891 L7.990977,26.393999 L6.774977,26.698999 L2.686977,10.35 C1.588977,10.296 0.5889768,9.597 0.1849768,8.538 C-0.3690232,7.083 0.3639768,5.45 1.814977,4.896 C3.270977,4.341 4.901977,5.074 5.456977,6.527 C5.859977,7.583 5.583977,8.767 4.804977,9.54 L10.33398,19.641 L9.717977,6.936 C8.650977,6.682 7.798977,5.811 7.596977,4.698 C7.461977,3.956 7.623977,3.207 8.053977,2.586 C8.480977,1.967 9.126977,1.551 9.868977,1.415 C10.60698,1.282 11.35898,1.443 11.97998,1.873 C12.59998,2.301 13.01598,2.945 13.15098,3.688 C13.35298,4.805 12.85798,5.919 11.94598,6.534 L15.72598,18.777 L17.33098,5.408 C16.32298,4.967 15.63898,3.956 15.63898,2.824 C15.63898,1.268 16.90498,-7.10542736e-15 18.46098,-7.10542736e-15 C20.01798,-7.10542736e-15 21.28198,1.268 21.28198,2.824 C21.28198,3.958 20.59798,4.967 19.59098,5.408 L21.16898,18.554 L24.87798,6.534 C23.96698,5.919 23.47398,4.805 23.67698,3.688 C23.95698,2.156 25.43098,1.139 26.95798,1.415 C28.48698,1.695 29.50598,3.165 29.23098,4.698 C29.02598,5.811 28.17398,6.682 27.10898,6.936 L26.48198,19.811 L32.02498,9.541 C31.24498,8.77 30.96398,7.585 31.36798,6.527 C31.92398,5.072 33.55598,4.341 35.01198,4.896 C36.46398,5.45 37.19698,7.083 36.64398,8.538 C36.23798,9.597 35.23798,10.296 34.13898,10.35 L30.05098,26.698999 Z M2.817977,5.966 C2.632977,5.966 2.444977,5.998 2.261977,6.066 C1.454977,6.375 1.047977,7.283 1.354977,8.092 C1.620977,8.783 2.339977,9.198 3.067977,9.081 L3.392977,9.027 L3.665977,8.852 C4.287977,8.456 4.548977,7.665 4.284977,6.975 C4.046977,6.35 3.450977,5.966 2.817977,5.966 Z M33.43598,9.028 L33.75698,9.081 C34.48598,9.198 35.20898,8.783 35.47098,8.09 C35.77998,7.283 35.37298,6.376 34.56498,6.066 C33.75698,5.76 32.84898,6.166 32.53998,6.975 C32.27598,7.665 32.53698,8.456 33.16098,8.852 L33.43598,9.028 Z M26.45298,2.626 C25.70898,2.626 25.04898,3.157 24.91098,3.911 C24.77898,4.639 25.17998,5.368 25.86398,5.644 L26.16698,5.767 L26.49198,5.76 C27.22998,5.741 27.86198,5.199 27.99698,4.471 C28.14898,3.623 27.58498,2.805 26.73298,2.65 C26.63998,2.632 26.54598,2.626 26.45298,2.626 Z M10.37698,2.623 C10.28298,2.623 10.18798,2.632 10.09398,2.65 C9.679977,2.726 9.323977,2.955 9.083977,3.299 C8.845977,3.645 8.756977,4.06 8.831977,4.473 C8.961977,5.202 9.596977,5.741 10.33498,5.76 L10.65898,5.767 L10.96198,5.644 C11.64798,5.368 12.04898,4.639 11.91698,3.911 C11.84198,3.499 11.61098,3.142 11.26598,2.902 C11.00098,2.72 10.69198,2.623 10.37698,2.623 Z M18.46098,1.254 C17.59498,1.254 16.89398,1.96 16.89398,2.824 C16.89398,3.562 17.41698,4.208 18.14198,4.359 L18.46098,4.424 L18.78098,4.359 C19.50398,4.208 20.02898,3.564 20.02898,2.824 C20.02898,1.96 19.32598,1.254 18.46098,1.254 L18.46098,1.254 Z" id="Fill-2" fill="#FFFFFE"></path>
            <path d="M7.403969,32.782 L7.403969,26.79 C7.403969,25.443 12.33497,24.352 18.41397,24.352 C24.49197,24.352 29.42197,25.443 29.42197,26.79 L29.42197,32.782" id="Fill-3" fill="#020000"></path>
            <path d="M30.04797,32.782 L28.79397,32.782 L28.79397,26.79 C28.59097,26.169 24.84497,24.977 18.41397,24.977 C11.98297,24.977 8.233972,26.169 8.029972,26.806 L8.031972,32.782 L6.776972,32.782 L6.776972,26.79 C6.776972,24.371 14.09197,23.724 18.41397,23.724 C22.73597,23.724 30.04797,24.371 30.04797,26.79 L30.04797,32.782" id="Fill-4" fill="#FFFFFE"></path>
            <path d="M29.42197,32.782001 C29.42197,34.129001 24.49197,35.2210005 18.41397,35.2210005 C12.33497,35.2210005 7.403969,34.129001 7.403969,32.782001 C7.403969,31.435001 12.33497,30.344001 18.41397,30.344001 C24.49197,30.344001 29.42197,31.435001 29.42197,32.782001" id="Fill-5" fill="#020000"></path>
            <path d="M18.41397,35.846 C14.09197,35.846 6.776972,35.204 6.776972,32.782 C6.776972,30.363 14.09197,29.717 18.41397,29.717 C22.73597,29.717 30.04797,30.363 30.04797,32.782 C30.04797,35.204 22.73597,35.846 18.41397,35.846 Z M18.41397,30.973 C11.98297,30.973 8.233972,32.161 8.029972,32.799 C8.234972,33.404 11.98497,34.593 18.41397,34.593 C24.84297,34.593 28.58997,33.404 28.79497,32.765 C28.59097,32.161 24.84497,30.973 18.41397,30.973 L18.41397,30.973 Z" id="Fill-6" fill="#FFFFFE"></path>
        </g>
    </g>
</svg>