<?xml version="1.0" encoding="UTF-8"?>
<svg width="37px" height="36px" viewBox="0 0 37 36" version="1.1" xmlns="http://www.w3.org/2000/svg" xmlns:xlink="http://www.w3.org/1999/xlink">
    <!-- Generator: Sketch 41 (35326) - http://www.bohemiancoding.com/sketch -->
    <title>Page 1</title>
    <desc>Created with Sketch.</desc>
    <defs></defs>
    <g id="Page-1" stroke="none" stroke-width="1" fill="none" fill-rule="evenodd">
        <g>
            <path d="M29.4446,26.543971 L33.6586,9.69597 C34.6666,9.86097 35.6816,9.30297 36.0606,8.31397 C36.4916,7.18097 35.9226,5.91297 34.7916,5.47997 C33.6586,5.04697 32.3896,5.61697 31.9566,6.74997 C31.5786,7.73897 31.9666,8.82997 32.8276,9.37897 L25.7256,22.53897 L26.5096,6.38397 C27.5276,6.35797 28.4246,5.62697 28.6156,4.58397 C28.8316,3.38997 28.0416,2.24997 26.8486,2.02897 C25.6536,1.81397 24.5146,2.60397 24.2966,3.79897 C24.1076,4.84197 24.6876,5.84397 25.6326,6.22597 L20.9006,21.55397 L18.9096,4.97097 C19.9086,4.76797 20.6576,3.88097 20.6576,2.82097 C20.6576,1.60897 19.6766,0.62897 18.4636,0.62897 C17.2526,0.62897 16.2696,1.60897 16.2696,2.82097 C16.2696,3.88097 17.0206,4.76797 18.0186,4.97097 L15.9996,21.77797 L11.1986,6.22597 C12.1456,5.84397 12.7266,4.84197 12.5366,3.79897 C12.3186,2.60397 11.1756,1.81397 9.984599,2.02897 C8.790599,2.24997 8.000599,3.38997 8.216599,4.58397 C8.405599,5.62697 9.301599,6.35797 10.3226,6.38397 L11.0946,22.32897 L4.005599,9.37897 C4.864599,8.82997 5.250599,7.73897 4.874599,6.74997 C4.442599,5.61697 3.173599,5.04697 2.042599,5.47997 C0.9085993,5.91297 0.3405993,7.18097 0.7715993,8.31397 C1.151599,9.30297 2.166599,9.86097 3.172599,9.69597 L7.386599,26.543971" id="Fill-1" fill="#FFFFFE"></path>
            <path d="M30.05359,26.695997 L28.83759,26.393997 L32.70459,10.928 L24.96459,25.267 L25.81459,7.761 L20.63059,24.56 L18.46359,6.516 L16.26959,24.781 L11.01559,7.761 L11.85259,25.02 L4.117594,10.889 L7.993594,26.393997 L6.777594,26.695997 L2.689594,10.35 C1.591594,10.295 0.591594,9.597 0.187594,8.536 C-0.08240605,7.832 -0.05940605,7.068 0.246594,6.378 C0.556594,5.687 1.113594,5.162 1.818594,4.893 C2.522594,4.626 3.289594,4.649 3.978594,4.957 C4.664594,5.264 5.191594,5.82 5.459594,6.527 C5.862594,7.581 5.586594,8.764 4.807594,9.535 L10.33659,19.637 L9.720594,6.936 C8.653594,6.679 7.801594,5.811 7.599594,4.695 C7.464594,3.953 7.626594,3.204 8.056594,2.585 C8.483594,1.966 9.129594,1.549 9.871594,1.417 C10.60959,1.279 11.36159,1.442 11.98259,1.869 C12.60259,2.299 13.01859,2.945 13.15359,3.688 C13.35559,4.801 12.86159,5.919 11.94859,6.532 L15.72859,18.774 L17.33359,5.409 C16.32559,4.967 15.64159,3.955 15.64159,2.821 C15.64159,1.267 16.90759,0 18.46359,0 C20.02059,0 21.28459,1.267 21.28459,2.821 C21.28459,3.955 20.60059,4.967 19.59359,5.409 L21.17159,18.551 L24.88059,6.532 C23.96959,5.919 23.47659,4.801 23.67959,3.688 C23.95959,2.155 25.43359,1.144 26.96059,1.417 C28.48959,1.695 29.50859,3.163 29.23359,4.694 C29.02859,5.811 28.17659,6.679 27.11159,6.936 L26.48459,19.808 L32.02759,9.537 C31.24759,8.769 30.96659,7.581 31.37059,6.527 C31.63959,5.82 32.16759,5.264 32.85559,4.957 C33.54459,4.649 34.31159,4.624 35.01459,4.893 C36.46659,5.448 37.20059,7.081 36.64659,8.536 C36.24059,9.597 35.24059,10.295 34.14159,10.35 L30.05359,26.695997 Z M2.822594,5.963 C2.636594,5.963 2.447594,5.997 2.264594,6.068 C1.456594,6.374 1.050594,7.281 1.357594,8.09 C1.624594,8.782 2.336594,9.195 3.070594,9.079 L3.397594,9.024 L3.668594,8.851 C4.290594,8.453 4.551594,7.664 4.287594,6.975 C4.049594,6.348 3.453594,5.963 2.822594,5.963 Z M33.43659,9.024 L33.75959,9.079 C34.48959,9.2 35.21059,8.782 35.47359,8.087 C35.78259,7.281 35.37559,6.374 34.56859,6.068 C33.76159,5.757 32.85159,6.164 32.54259,6.975 C32.27859,7.664 32.53959,8.453 33.16359,8.849 L33.43659,9.024 Z M26.45559,2.624 C25.71159,2.624 25.05159,3.153 24.91359,3.912 C24.78059,4.64 25.18259,5.366 25.86659,5.644 L26.17059,5.765 L26.49459,5.757 C27.23259,5.74 27.86459,5.197 27.99959,4.472 C28.15159,3.622 27.58759,2.803 26.73559,2.649 C26.64259,2.633 26.54859,2.624 26.45559,2.624 Z M10.38059,2.624 C10.28559,2.624 10.19059,2.633 10.09659,2.649 C9.682594,2.725 9.326594,2.953 9.086594,3.299 C8.848594,3.643 8.759594,4.06 8.834594,4.474 C8.964594,5.197 9.599594,5.74 10.33759,5.757 L10.66059,5.765 L10.96459,5.644 C11.65059,5.366 12.05159,4.64 11.91959,3.912 C11.84459,3.498 11.61359,3.141 11.26859,2.9 C11.00359,2.719 10.69459,2.624 10.38059,2.624 Z M18.46359,1.254 C17.59759,1.254 16.89659,1.958 16.89659,2.821 C16.89659,3.561 17.41959,4.206 18.14459,4.357 L18.46359,4.422 L18.78359,4.357 C19.50659,4.206 20.03159,3.561 20.03159,2.821 C20.03159,1.958 19.32859,1.254 18.46359,1.254 L18.46359,1.254 Z" id="Fill-2" fill="#020000"></path>
            <path d="M7.406588,32.781972 L7.406588,26.786972 C7.406588,25.43997 12.33759,24.35197 18.41659,24.35197 C24.49459,24.35197 29.42459,25.43997 29.42459,26.786972 L29.42459,32.781972" id="Fill-3" fill="#FFFFFE"></path>
            <path d="M30.05059,32.781998 L28.79659,32.781998 L28.79659,26.786998 C28.59359,26.167998 24.84759,24.979 18.41659,24.979 C11.98559,24.979 8.236591,26.167998 8.032591,26.807998 L8.034591,32.781998 L6.779591,32.781998 L6.779591,26.786998 C6.779591,24.37 14.09459,23.724 18.41659,23.724 C22.73859,23.724 30.05059,24.37 30.05059,26.786998 L30.05059,32.781998" id="Fill-4" fill="#020000"></path>
            <path d="M29.42459,32.781971 C29.42459,34.127971 24.49459,35.2179712 18.41659,35.2179712 C12.33759,35.2179712 7.406588,34.127971 7.406588,32.781971 C7.406588,31.433971 12.33759,30.342971 18.41659,30.342971 C24.49459,30.342971 29.42459,31.433971 29.42459,32.781971" id="Fill-5" fill="#FFFFFE"></path>
            <path d="M18.41659,35.84599 C14.09459,35.84599 6.779591,35.19899 6.779591,32.78199 C6.779591,30.36099 14.09459,29.71399 18.41659,29.71399 C22.73859,29.71399 30.05059,30.36099 30.05059,32.78199 C30.05059,35.19899 22.73859,35.84599 18.41659,35.84599 Z M18.41659,30.96899 C11.98559,30.96899 8.236591,32.15899 8.032591,32.79699 C8.237591,33.39999 11.98759,34.59099 18.41659,34.59099 C24.84359,34.59099 28.59059,33.39999 28.79759,32.76499 C28.59359,32.15899 24.84759,30.96899 18.41659,30.96899 L18.41659,30.96899 Z" id="Fill-6" fill="#020000"></path>
        </g>
    </g>
</svg>